# This file uses centimeters as units for non-parametric coordinates.

mtllib Barrier_2_Complete.mtl
g default
v 2.270702 -0.035967 0.085053
v 2.355755 -0.035967 0.120283
v 2.440809 -0.035967 0.085053
v 2.476039 -0.035967 -0.000000
v 2.440809 -0.035967 -0.085053
v 2.355755 -0.035967 -0.120283
v 2.270702 -0.035967 -0.085053
v 2.235472 -0.035967 -0.000000
v 2.270702 1.191593 0.085053
v 2.355755 1.191593 0.120283
v 2.440809 1.191593 0.085053
v 2.476039 1.191593 -0.000000
v 2.440809 1.191593 -0.085053
v 2.355755 1.191593 -0.120283
v 2.270702 1.191593 -0.085053
v 2.235472 1.191593 -0.000000
v 2.355755 -0.035967 -0.000000
v 2.355755 1.191593 -0.000000
vt 0.904271 0.992499
vt 0.882278 0.992499
vt 0.882278 0.675072
vt 0.904271 0.675072
vt 0.860284 0.992499
vt 0.860284 0.675072
vt 0.838291 0.992498
vt 0.838291 0.675072
vt 0.816298 0.992498
vt 0.816298 0.675072
vt 0.992244 0.992498
vt 0.970251 0.992498
vt 0.970251 0.675072
vt 0.992244 0.675072
vt 0.948258 0.992498
vt 0.948258 0.675072
vt 0.926264 0.992498
vt 0.926264 0.675072
vt 0.932501 0.634243
vt 0.941611 0.612250
vt 0.963604 0.634243
vt 0.941611 0.656236
vt 0.963604 0.665346
vt 0.985598 0.656236
vt 0.994708 0.634243
vt 0.985598 0.612250
vt 0.963604 0.603140
vt 0.912965 0.656236
vt 0.890971 0.665346
vt 0.890971 0.634243
vt 0.868978 0.656236
vt 0.859868 0.634243
vt 0.868978 0.612250
vt 0.890971 0.603140
vt 0.912965 0.612250
vt 0.922075 0.634243
vn -0.707106 0.000000 0.707107
vn 0.000000 0.000000 1.000000
vn 0.000000 0.000000 1.000000
vn -0.707106 0.000000 0.707107
vn 0.707106 0.000000 0.707107
vn 0.707106 0.000000 0.707107
vn 1.000000 0.000000 -0.000000
vn 1.000000 0.000000 -0.000000
vn 0.707106 0.000000 -0.707107
vn 0.707106 0.000000 -0.707107
vn -0.000000 0.000000 -1.000000
vn -0.000000 0.000000 -1.000000
vn -0.707107 0.000000 -0.707107
vn -0.707107 0.000000 -0.707107
vn -1.000000 0.000000 -0.000000
vn -1.000000 0.000000 -0.000000
vn 0.000000 -1.000000 0.000000
vn 0.000000 -1.000000 0.000000
vn 0.000000 -1.000000 0.000000
vn 0.000000 -1.000000 0.000000
vn 0.000000 -1.000000 0.000000
vn 0.000000 -1.000000 0.000000
vn 0.000000 -1.000000 0.000000
vn 0.000000 -1.000000 0.000000
vn 0.000000 -1.000000 0.000000
vn -0.000000 1.000000 0.000000
vn -0.000000 1.000000 0.000000
vn -0.000000 1.000000 0.000000
vn -0.000000 1.000000 -0.000001
vn -0.000000 1.000000 -0.000001
vn -0.000000 1.000000 0.000000
vn -0.000000 1.000000 0.000000
vn 0.000000 1.000000 0.000001
vn 0.000000 1.000000 0.000001
s 1
g polySurface3 pCylinder3
usemtl initialShadingGroup
f 1/1/1 2/2/2 10/3/3 9/4/4
f 2/2/2 3/5/5 11/6/6 10/3/3
f 3/5/5 4/7/7 12/8/8 11/6/6
f 4/7/7 5/9/9 13/10/10 12/8/8
f 5/11/9 6/12/11 14/13/12 13/14/10
f 6/12/11 7/15/13 15/16/14 14/13/12
f 7/15/13 8/17/15 16/18/16 15/16/14
f 8/17/15 1/1/1 9/4/4 16/18/16
s 2
f 2/19/17 1/20/18 17/21/19
f 3/22/20 2/19/17 17/21/19
f 4/23/21 3/22/20 17/21/19
f 5/24/22 4/23/21 17/21/19
f 6/25/23 5/24/22 17/21/19
f 7/26/24 6/25/23 17/21/19
f 8/27/25 7/26/24 17/21/19
f 1/20/18 8/27/25 17/21/19
s 3
f 9/28/26 10/29/27 18/30/28
f 10/29/27 11/31/29 18/30/28
f 11/31/29 12/32/30 18/30/28
f 12/32/30 13/33/31 18/30/28
f 13/33/31 14/34/32 18/30/28
f 14/34/32 15/35/33 18/30/28
f 15/35/33 16/36/34 18/30/28
f 16/36/34 9/28/26 18/30/28
g default
v -2.500000 -1.500000 0.140258
v 2.500000 -1.500000 0.140258
v -2.500000 -1.500000 -0.140258
v 2.500000 -1.500000 -0.140258
v 2.500000 0.000000 0.140258
v 2.500000 0.000000 -0.140258
v -2.500000 0.000000 -0.140258
v -2.500000 0.000000 0.140258
vt 0.047232 0.006939
vt 0.809962 0.006939
vt 0.809962 0.049730
vt 0.047232 0.049730
vt 0.852754 0.049730
vt 0.852754 0.278549
vt 0.809962 0.278549
vt 0.848129 0.580885
vt 0.004440 0.580885
vt 0.004440 0.327778
vt 0.848129 0.327778
vt 0.004440 0.049730
vt 0.047232 0.278549
vt 0.004440 0.278549
vt 0.809962 0.321341
vt 0.047232 0.321341
vn 0.000000 -1.000000 0.000000
vn 0.000000 -1.000000 0.000000
vn 0.000000 -1.000000 0.000000
vn 0.000000 -1.000000 0.000000
vn 1.000000 0.000000 0.000000
vn 1.000000 0.000000 0.000000
vn 1.000000 0.000000 0.000000
vn 1.000000 0.000000 0.000000
vn 0.000000 0.000000 -1.000000
vn 0.000000 0.000000 -1.000000
vn 0.000000 0.000000 -1.000000
vn 0.000000 0.000000 -1.000000
vn -1.000000 0.000000 0.000000
vn -1.000000 0.000000 0.000000
vn -1.000000 0.000000 0.000000
vn -1.000000 0.000000 0.000000
vn 0.000000 0.000000 1.000000
vn 0.000000 0.000000 1.000000
vn 0.000000 0.000000 1.000000
vn 0.000000 0.000000 1.000000
vn 0.000000 1.000000 0.000000
vn 0.000000 1.000000 0.000000
vn 0.000000 1.000000 0.000000
vn 0.000000 1.000000 0.000000
s off
g polySurface5 Barrier1:pCube1
usemtl Barrier1:initialShadingGroup
f 21/37/35 22/38/36 20/39/37 19/40/38
f 20/39/39 22/41/40 24/42/41 23/43/42
f 25/44/43 24/45/44 22/46/45 21/47/46
f 21/48/47 19/40/48 26/49/49 25/50/50
f 19/40/51 20/39/52 23/43/53 26/49/54
f 24/51/55 25/52/56 26/49/57 23/43/58
g default
v -2.500000 1.500000 0.140258
v 2.500000 1.500000 0.140258
v -2.500000 1.500000 -0.140258
v 2.500000 1.500000 -0.140258
v -2.500000 1.151220 0.140258
v -2.500000 1.151220 -0.140258
v 2.500000 1.151220 -0.140258
v 2.500000 1.151220 0.140258
vt 0.046832 0.637059
vt 0.805851 0.637056
vt 0.805853 0.679637
vt 0.046830 0.679643
vt 0.004347 0.584085
vt 0.046842 0.584118
vt 0.004285 0.636975
vt 0.805852 0.732585
vt 0.046832 0.732589
vt 0.805841 0.584115
vt 0.848335 0.584082
vt 0.848398 0.636972
vt 0.805850 0.775170
vt 0.046834 0.775171
vn 0.000000 1.000000 0.000000
vn 0.000000 1.000000 0.000000
vn 0.000000 1.000000 0.000000
vn 0.000000 1.000000 0.000000
vn -1.000000 0.000000 0.000000
vn -1.000000 0.000000 0.000000
vn -1.000000 0.000000 0.000000
vn -1.000000 0.000000 0.000000
vn 0.000000 0.000000 -1.000000
vn 0.000000 0.000000 -1.000000
vn 0.000000 0.000000 -1.000000
vn 0.000000 0.000000 -1.000000
vn 1.000000 0.000000 0.000000
vn 1.000000 0.000000 0.000000
vn 1.000000 0.000000 0.000000
vn 1.000000 0.000000 0.000000
vn 0.000000 0.000000 1.000000
vn 0.000000 0.000000 1.000000
vn 0.000000 0.000000 1.000000
vn 0.000000 0.000000 1.000000
vn 0.000000 -1.000000 0.000000
vn 0.000000 -1.000000 0.000000
vn 0.000000 -1.000000 0.000000
vn 0.000000 -1.000000 0.000000
s off
g Barrier1:pCube1 polySurface4
usemtl Barrier1:initialShadingGroup
f 27/53/59 28/54/60 30/55/61 29/56/62
f 32/57/63 31/58/64 27/53/65 29/59/66
f 29/56/67 30/55/68 33/60/69 32/61/70
f 34/62/71 33/63/72 30/64/73 28/54/74
f 31/58/75 34/62/76 28/54/77 27/53/78
f 32/61/79 33/60/80 34/65/81 31/66/82
g default
v -2.270702 -0.035967 -0.085053
v -2.355755 -0.035967 -0.120283
v -2.440809 -0.035967 -0.085053
v -2.476039 -0.035967 0.000000
v -2.440809 -0.035967 0.085053
v -2.355755 -0.035967 0.120283
v -2.270702 -0.035967 0.085053
v -2.235472 -0.035967 0.000000
v -2.270702 1.191593 -0.085053
v -2.355755 1.191593 -0.120283
v -2.440809 1.191593 -0.085053
v -2.476039 1.191593 0.000000
v -2.440809 1.191593 0.085053
v -2.355755 1.191593 0.120283
v -2.270702 1.191593 0.085053
v -2.235472 1.191593 0.000000
v -2.355755 -0.035967 0.000000
v -2.355755 1.191593 0.000000
vt 0.904271 0.992499
vt 0.882278 0.992499
vt 0.882278 0.675072
vt 0.904271 0.675072
vt 0.860284 0.992499
vt 0.860284 0.675072
vt 0.838291 0.992498
vt 0.838291 0.675072
vt 0.816298 0.992498
vt 0.816298 0.675072
vt 0.992244 0.992498
vt 0.970251 0.992498
vt 0.970251 0.675072
vt 0.992244 0.675072
vt 0.948258 0.992498
vt 0.948258 0.675072
vt 0.926264 0.992498
vt 0.926264 0.675072
vt 0.932501 0.634243
vt 0.941611 0.612250
vt 0.963604 0.634243
vt 0.941611 0.656236
vt 0.963604 0.665346
vt 0.985598 0.656236
vt 0.994708 0.634243
vt 0.985598 0.612250
vt 0.963604 0.603140
vt 0.912965 0.656236
vt 0.890971 0.665346
vt 0.890971 0.634243
vt 0.868978 0.656236
vt 0.859868 0.634243
vt 0.868978 0.612250
vt 0.890971 0.603140
vt 0.912965 0.612250
vt 0.922075 0.634243
vn 0.707106 0.000000 -0.707107
vn 0.000000 0.000000 -1.000000
vn 0.000000 0.000000 -1.000000
vn 0.707106 0.000000 -0.707107
vn -0.707106 0.000000 -0.707107
vn -0.707106 0.000000 -0.707107
vn -1.000000 0.000000 0.000000
vn -1.000000 0.000000 0.000000
vn -0.707106 0.000000 0.707107
vn -0.707106 0.000000 0.707107
vn 0.000000 0.000000 1.000000
vn 0.000000 0.000000 1.000000
vn 0.707107 0.000000 0.707107
vn 0.707107 0.000000 0.707107
vn 1.000000 0.000000 0.000000
vn 1.000000 0.000000 0.000000
vn 0.000000 -1.000000 0.000000
vn 0.000000 -1.000000 0.000000
vn 0.000000 -1.000000 0.000000
vn 0.000000 -1.000000 0.000000
vn 0.000000 -1.000000 0.000000
vn 0.000000 -1.000000 0.000000
vn 0.000000 -1.000000 0.000000
vn 0.000000 -1.000000 0.000000
vn 0.000000 -1.000000 0.000000
vn 0.000000 1.000000 0.000000
vn 0.000000 1.000000 0.000000
vn 0.000000 1.000000 0.000000
vn 0.000000 1.000000 0.000001
vn 0.000000 1.000000 0.000001
vn 0.000000 1.000000 0.000000
vn 0.000000 1.000000 0.000000
vn 0.000000 1.000000 -0.000001
vn 0.000000 1.000000 -0.000001
s 1
g pCylinder3 polySurface2
usemtl initialShadingGroup
f 35/67/83 36/68/84 44/69/85 43/70/86
f 36/68/84 37/71/87 45/72/88 44/69/85
f 37/71/87 38/73/89 46/74/90 45/72/88
f 38/73/89 39/75/91 47/76/92 46/74/90
f 39/77/91 40/78/93 48/79/94 47/80/92
f 40/78/93 41/81/95 49/82/96 48/79/94
f 41/81/95 42/83/97 50/84/98 49/82/96
f 42/83/97 35/67/83 43/70/86 50/84/98
s 2
f 36/85/99 35/86/100 51/87/101
f 37/88/102 36/85/99 51/87/101
f 38/89/103 37/88/102 51/87/101
f 39/90/104 38/89/103 51/87/101
f 40/91/105 39/90/104 51/87/101
f 41/92/106 40/91/105 51/87/101
f 42/93/107 41/92/106 51/87/101
f 35/86/100 42/93/107 51/87/101
s 3
f 43/94/108 44/95/109 52/96/110
f 44/95/109 45/97/111 52/96/110
f 45/97/111 46/98/112 52/96/110
f 46/98/112 47/99/113 52/96/110
f 47/99/113 48/100/114 52/96/110
f 48/100/114 49/101/115 52/96/110
f 49/101/115 50/102/116 52/96/110
f 50/102/116 43/94/108 52/96/110
