# This file uses centimeters as units for non-parametric coordinates.

mtllib Barrier.mtl
g default
v -2.500000 -1.500000 0.140258
v 2.500000 -1.500000 0.140258
v -2.500000 1.500000 0.140258
v 2.500000 1.500000 0.140258
v -2.500000 1.500000 -0.140258
v 2.500000 1.500000 -0.140258
v -2.500000 -1.500000 -0.140258
v 2.500000 -1.500000 -0.140258
vt 0.044257 0.002013
vt 0.803275 0.002014
vt 0.803276 0.457422
vt 0.044257 0.457425
vt 0.803273 0.500005
vt 0.044257 0.500008
vt 0.803274 0.955421
vt 0.044259 0.955422
vt 0.803277 0.998008
vt 0.044255 0.998003
vt 0.845865 0.002015
vt 0.845867 0.457422
vt 0.001689 0.001992
vt 0.001688 0.457438
vn 0.000000 0.000000 1.000000
vn 0.000000 0.000000 1.000000
vn 0.000000 0.000000 1.000000
vn 0.000000 0.000000 1.000000
vn 0.000000 1.000000 0.000000
vn 0.000000 1.000000 0.000000
vn 0.000000 1.000000 0.000000
vn 0.000000 1.000000 0.000000
vn 0.000000 0.000000 -1.000000
vn 0.000000 0.000000 -1.000000
vn 0.000000 0.000000 -1.000000
vn 0.000000 0.000000 -1.000000
vn 0.000000 -1.000000 0.000000
vn 0.000000 -1.000000 0.000000
vn 0.000000 -1.000000 0.000000
vn 0.000000 -1.000000 0.000000
vn 1.000000 0.000000 0.000000
vn 1.000000 0.000000 0.000000
vn 1.000000 0.000000 0.000000
vn 1.000000 0.000000 0.000000
vn -1.000000 0.000000 0.000000
vn -1.000000 0.000000 0.000000
vn -1.000000 0.000000 0.000000
vn -1.000000 0.000000 0.000000
s off
g Barrier2:pCube1
usemtl Barrier2:initialShadingGroup
f 1/1/1 2/2/2 4/3/3 3/4/4
f 3/4/5 4/3/6 6/5/7 5/6/8
f 5/6/9 6/5/10 8/7/11 7/8/12
f 7/8/13 8/7/14 2/9/15 1/10/16
f 2/2/17 8/11/18 6/12/19 4/3/20
f 7/13/21 1/1/22 3/4/23 5/14/24
