# This file uses centimeters as units for non-parametric coordinates.

mtllib Floor_2.mtl
g default
v -2.500000 0.000000 2.500000
v 2.500000 0.000000 2.500000
v -2.500000 0.000000 -2.500000
v 2.500000 0.000000 -2.500000
v -2.500000 0.800010 2.500000
v -2.400010 0.900000 2.400010
v -2.400010 0.900000 -2.400010
v -2.500000 0.800010 -2.500000
v 2.500000 0.800010 2.500000
v 2.400010 0.900000 2.400010
v 2.500000 0.800010 -2.500000
v 2.400010 0.900000 -2.400010
vt 0.537490 0.966119
vt 0.955070 0.966119
vt 0.955070 0.548540
vt 0.537490 0.548540
vt 0.098402 0.112960
vt 0.090051 0.104610
vt 0.507630 0.104610
vt 0.499279 0.112960
vt 0.098402 0.513837
vt 0.090052 0.522189
vt 0.499279 0.513837
vt 0.507630 0.522189
vt 0.507630 0.589002
vt 0.090052 0.589002
vt 0.090052 0.037797
vt 0.507630 0.037797
vt 0.574444 0.104610
vt 0.023238 0.522189
vt 0.023238 0.104610
vt 0.574444 0.522189
vn 0.000000 -1.000000 0.000000
vn 0.000000 -1.000000 0.000000
vn 0.000000 -1.000000 0.000000
vn 0.000000 -1.000000 0.000000
vn 0.000000 0.707107 0.707106
vn 0.000000 0.707107 0.707106
vn 0.000000 0.707107 0.707106
vn 0.000000 0.707107 0.707106
vn -0.707105 0.707109 0.000000
vn -0.707105 0.707108 0.000000
vn -0.707105 0.707109 0.000000
vn -0.707105 0.707109 0.000000
vn 0.000000 0.707109 -0.707105
vn 0.000000 0.707109 -0.707105
vn 0.000000 0.707109 -0.707105
vn 0.000000 0.707109 -0.707105
vn 0.707106 0.707107 0.000000
vn 0.707106 0.707107 0.000000
vn 0.707106 0.707107 0.000000
vn 0.707106 0.707107 0.000000
vn 0.000000 0.000000 -1.000000
vn 0.000000 0.000000 -1.000000
vn 0.000000 0.000000 -1.000000
vn 0.000000 0.000000 -1.000000
vn 0.000000 0.000000 1.000000
vn 0.000000 0.000000 1.000000
vn 0.000000 0.000000 1.000000
vn 0.000000 0.000000 1.000000
vn 0.000000 1.000000 0.000000
vn 0.000000 1.000000 0.000000
vn 0.000000 1.000000 0.000000
vn 0.000000 1.000000 0.000000
vn 1.000000 0.000000 0.000000
vn 1.000000 0.000000 0.000000
vn 1.000000 0.000000 0.000000
vn 1.000000 0.000000 0.000000
vn -1.000000 0.000000 0.000000
vn -1.000000 0.000000 0.000000
vn -1.000000 0.000000 0.000000
vn -1.000000 0.000000 0.000000
s off
g Floor_2:Floor_3
usemtl lambert2SG
f 3/1/1 4/2/2 2/3/3 1/4/4
f 6/5/5 5/6/6 9/7/7 10/8/8
f 7/9/9 8/10/10 5/6/11 6/5/12
f 8/10/13 7/9/14 12/11/15 11/12/16
f 10/8/17 9/7/18 11/12/19 12/11/20
f 4/13/21 3/14/22 8/10/23 11/12/24
f 9/7/25 5/6/26 1/15/27 2/16/28
f 6/5/29 10/8/30 12/11/31 7/9/32
f 11/12/33 9/7/34 2/17/35 4/20/36
f 3/18/37 1/19/38 5/6/39 8/10/40
